# xmcd
#
# Track frame offsets: 
#        150
#        13640
#        25828
#        39700
#        55298
#        69303
#        87958
#        101385
#        114388
#        132273
#        148680
#        159755
#        172548
#        189668
#
# Disc length: 2691 seconds
#
# Revision: 0
# Processed by: cddbd v1.5.2PL0 Copyright (c) Steve Scherf et al.
# Submitted via: ExactAudioCopy v1.0b3
#
DISCID=aa0a810e
DTITLE=Candye Kane - Swango
DYEAR=1998
DGENRE=Blues
TTITLE0=200 Lbs of Fun
TTITLE1=I Don't Want Nobody (To Have My Love But You)
TTITLE2=Just Because
TTITLE3=Poetry Cocktail
TTITLE4=Dream a Little Dream of Me
TTITLE5=Everybody Needs Love
TTITLE6=Swango
TTITLE7=Tryin' to Forget You
TTITLE8=Candy
TTITLE9=Forgive Me
TTITLE10=Blind Love
TTITLE11=Don't Cry Sister
TTITLE12=I'll Make It Right
TTITLE13=You've Been a Good Ole Wagon
EXTD=
EXTT0=
EXTT1=
EXTT2=
EXTT3=
EXTT4=
EXTT5=
EXTT6=
EXTT7=
EXTT8=
EXTT9=
EXTT10=
EXTT11=
EXTT12=
EXTT13=
PLAYORDER=
